<svg width="410.447509765625px" height="122.0213134765625px" xmlns="http://www.w3.org/2000/svg" viewBox="44.7762451171875 13.989343261718751 410.447509765625 122.0213134765625" style="background: rgba(0, 0, 0, 0);" preserveAspectRatio="xMidYMid"><defs><filter id="editing-jagged" x="-100%" y="-100%" width="300%" height="300%"><feTurbulence result="turb" baseFrequency="0.1" numOctaves="1" seed="1"></feTurbulence><feDisplacementMap in="SourceGraphic" in2="turb" scale="10"></feDisplacementMap></filter></defs><g filter="url(#editing-jagged)"><g transform="translate(108.30500185489655, 104.51781272888184)"><path d="M16.38-3.52L16.38-3.52L16.38-3.52Q14.40 1.28 8.06 1.28L8.06 1.28L8.06 1.28Q4.86 1.28 2.82-0.96L2.82-0.96L2.82-0.96Q1.15-2.82 1.15-4.93L1.15-4.93L1.15-4.93Q1.15-9.73 3.39-20.22L3.39-20.22L8.06-44.80L21.06-46.08L14.85-13.70L14.85-13.70Q13.76-8.96 13.76-7.30L13.76-7.30L13.76-7.30Q13.76-3.65 16.38-3.52ZM35.78 1.28L35.78 1.28L35.78 1.28Q21.70 1.28 21.70-11.97L21.70-11.97L21.70-11.97Q21.70-21.38 26.88-27.46L26.88-27.46L26.88-27.46Q32.38-33.92 41.92-33.92L41.92-33.92L41.92-33.92Q48.83-33.92 52.35-30.72L52.35-30.72L52.35-30.72Q55.87-27.52 55.87-20.80L55.87-20.80L55.87-20.80Q55.87-10.56 50.37-4.61L50.37-4.61L50.37-4.61Q44.99 1.28 35.78 1.28ZM37.44-26.56L37.44-26.56L37.44-26.56Q36.67-24.83 36.06-22.24L36.06-22.24L36.06-22.24Q35.46-19.65 34.69-15.55L34.69-15.55L34.69-15.55Q33.92-11.46 33.92-6.40L33.92-6.40L33.92-6.40Q33.92-4.74 34.46-3.65L34.46-3.65L34.46-3.65Q35.01-2.56 36.48-2.56L36.48-2.56L36.48-2.56Q37.95-2.56 38.88-3.26L38.88-3.26L38.88-3.26Q39.81-3.97 40.51-5.63L40.51-5.63L40.51-5.63Q41.79-8.58 42.82-14.05L42.82-14.05L42.82-14.05Q43.84-19.52 43.94-21.89L43.94-21.89L43.94-21.89Q44.03-24.26 44.03-26.02L44.03-26.02L44.03-26.02Q44.03-27.78 43.52-28.93L43.52-28.93L43.52-28.93Q43.01-30.08 41.57-30.08L41.57-30.08L41.57-30.08Q40.13-30.08 39.17-29.18L39.17-29.18L39.17-29.18Q38.21-28.29 37.44-26.56ZM62.43-1.92L62.43-1.92L62.43-1.92Q60.93-3.58 60.26-6.21L60.26-6.21L60.26-6.21Q59.58-8.83 59.58-13.12L59.58-13.12L59.58-13.12Q59.58-17.41 61.06-21.31L61.06-21.31L61.06-21.31Q62.53-25.22 65.22-28.03L65.22-28.03L65.22-28.03Q70.72-33.92 79.81-33.92L79.81-33.92L79.81-33.92Q83.07-33.92 85.44-32.83L85.44-32.83L96.38-33.92L91.65-8.96L91.65-8.96Q91.46-8.19 91.46-6.78L91.46-6.78L91.46-6.78Q91.46-5.38 92.32-4.48L92.32-4.48L92.32-4.48Q93.18-3.58 94.46-3.46L94.46-3.46L94.46-3.46Q93.82-1.28 91.49 0L91.49 0L91.49 0Q89.15 1.28 86.53 1.28L86.53 1.28L86.53 1.28Q83.90 1.28 82.14 0.29L82.14 0.29L82.14 0.29Q80.38-0.70 79.87-2.37L79.87-2.37L79.87-2.37Q78.85-0.77 76.67 0.26L76.67 0.26L76.67 0.26Q74.50 1.28 71.58 1.28L71.58 1.28L71.58 1.28Q68.67 1.28 66.30 0.51L66.30 0.51L66.30 0.51Q63.94-0.26 62.43-1.92ZM75.94-27.90L75.94-27.90L75.94-27.90Q75.20-26.75 74.56-24.80L74.56-24.80L74.56-24.80Q73.92-22.85 72.86-17.63L72.86-17.63L72.86-17.63Q71.81-12.42 71.81-8.70L71.81-8.70L71.81-8.70Q71.81-4.99 72.38-3.90L72.38-3.90L72.38-3.90Q72.96-2.82 73.98-2.82L73.98-2.82L73.98-2.82Q76.03-2.82 77.54-4.77L77.54-4.77L77.54-4.77Q79.04-6.72 79.62-10.18L79.62-10.18L83.01-28.93L83.01-28.93Q81.66-30.08 80.10-30.08L80.10-30.08L80.10-30.08Q78.53-30.08 77.60-29.57L77.60-29.57L77.60-29.57Q76.67-29.06 75.94-27.90ZM119.74-33.92L119.74-33.92L119.74-33.92Q122.05-33.92 123.84-33.41L123.84-33.41L123.84-33.41Q123.90-33.66 124.03-34.37L124.03-34.37L124.35-36.35L124.35-36.35Q124.61-37.63 124.99-39.74L124.99-39.74L126.02-44.80L138.75-46.08L131.65-8.96L131.65-8.96Q131.58-8.58 131.58-7.94L131.58-7.94L131.58-6.91L131.58-6.91Q131.58-5.50 132.29-4.45L132.29-4.45L132.29-4.45Q132.99-3.39 134.14-3.39L134.14-3.39L134.14-3.39Q132.86-0.38 128.96 0.90L128.96 0.90L128.96 0.90Q127.62 1.28 125.73 1.28L125.73 1.28L125.73 1.28Q123.84 1.28 122.11 0.29L122.11 0.29L122.11 0.29Q120.38-0.70 119.87-2.37L119.87-2.37L119.87-2.37Q118.85-0.70 116.80 0.29L116.80 0.29L116.80 0.29Q114.75 1.28 111.78 1.28L111.78 1.28L111.78 1.28Q108.80 1.28 106.34 0.51L106.34 0.51L106.34 0.51Q103.87-0.26 102.34-1.92L102.34-1.92L102.34-1.92Q99.52-5.18 99.52-12.61L99.52-12.61L99.52-12.61Q99.52-22.21 105.15-28.03L105.15-28.03L105.15-28.03Q110.78-33.92 119.74-33.92ZM119.30-30.08L119.30-30.08L119.30-30.08Q116.93-30.08 115.65-27.52L115.65-27.52L115.65-27.52Q114.37-24.96 113.06-18.62L113.06-18.62L113.06-18.62Q111.74-12.29 111.74-6.59L111.74-6.59L111.74-6.59Q111.74-2.69 114.05-2.69L114.05-2.69L114.05-2.69Q116.10-2.69 117.54-4.74L117.54-4.74L117.54-4.74Q118.98-6.78 119.55-10.18L119.55-10.18L123.01-28.93L123.01-28.93Q121.66-30.08 119.30-30.08ZM154.94-3.52L154.94-3.52L154.94-3.52Q152.96 1.28 146.62 1.28L146.62 1.28L146.62 1.28Q143.36 1.28 141.31-0.96L141.31-0.96L141.31-0.96Q139.58-2.94 139.58-4.93L139.58-4.93L139.58-4.93Q139.58-10.11 141.95-20.22L141.95-20.22L144.32-32.64L157.31-33.92L153.41-13.70L153.41-13.70Q152.32-8.96 152.32-7.30L152.32-7.30L152.32-7.30Q152.32-3.65 154.94-3.52ZM145.47-41.54L145.47-41.54L145.47-41.54Q145.47-44.03 147.55-45.38L147.55-45.38L147.55-45.38Q149.63-46.72 152.64-46.72L152.64-46.72L152.64-46.72Q155.65-46.72 157.47-45.38L157.47-45.38L157.47-45.38Q159.30-44.03 159.30-41.54L159.30-41.54L159.30-41.54Q159.30-39.04 157.28-37.76L157.28-37.76L157.28-37.76Q155.26-36.48 152.26-36.48L152.26-36.48L152.26-36.48Q149.25-36.48 147.36-37.76L147.36-37.76L147.36-37.76Q145.47-39.04 145.47-41.54ZM187.46 1.28L187.46 1.28L187.46 1.28Q179.71 1.28 179.71-4.74L179.71-4.74L179.71-4.74Q179.78-6.40 180.29-9.22L180.29-9.22L181.44-15.10L181.44-15.10Q183.17-23.42 183.17-25.28L183.17-25.28L183.17-25.28Q183.17-28.99 180.99-28.99L180.99-28.99L180.99-28.99Q177.34-28.99 175.42-19.46L175.42-19.46L171.65 0L158.78 1.28L165.44-32.70L175.94-33.92L174.91-27.65L174.91-27.65Q177.92-33.92 187.14-33.92L187.14-33.92L187.14-33.92Q191.62-33.92 193.50-32.03L193.50-32.03L193.50-32.03Q195.39-30.14 195.39-25.92L195.39-25.92L195.39-25.92Q195.39-21.95 193.34-12.67L193.34-12.67L193.34-12.67Q192.38-8.51 192.38-6.94L192.38-6.94L192.38-6.94Q192.38-5.38 193.25-4.48L193.25-4.48L193.25-4.48Q194.11-3.58 195.39-3.46L195.39-3.46L195.39-3.46Q194.75-1.28 192.54 0L192.54 0L192.54 0Q190.34 1.28 187.46 1.28ZM205.06-26.75L205.06-26.75L205.06-26.75Q207.23-29.82 210.53-31.87L210.53-31.87L210.53-31.87Q213.82-33.92 217.86-33.92L217.86-33.92L217.86-33.92Q221.89-33.92 223.81-32.64L223.81-32.64L236.35-33.92L232.00-9.34L232.00-9.34Q229.76 3.20 225.02 8.13L225.02 8.13L225.02 8.13Q220.48 12.80 211.65 12.80L211.65 12.80L211.65 12.80Q204.93 12.80 201.09 10.69L201.09 10.69L201.09 10.69Q197.25 8.58 197.25 5.06L197.25 5.06L197.25 5.06Q197.25 2.43 199.23 0.93L199.23 0.93L199.23 0.93Q201.22-0.58 204.29-0.58L204.29-0.58L204.29-0.58Q206.98-0.58 209.02 0.64L209.02 0.64L209.02 0.64Q210.24 1.28 210.82 2.18L210.82 2.18L210.82 2.18Q209.34 3.46 209.34 5.57L209.34 5.57L209.34 5.57Q209.34 8.32 211.90 8.32L211.90 8.32L211.90 8.32Q216.19 8.32 218.62-1.79L218.62-1.79L218.62-1.79Q219.33-4.54 219.90-7.30L219.90-7.30L219.90-7.30Q217.02-3.78 210.50-3.78L210.50-3.78L210.50-3.78Q205.95-3.78 203.33-5.95L203.33-5.95L203.33-5.95Q200.70-8.13 200.70-13.25L200.70-13.25L200.70-13.25Q200.70-16.45 201.79-20.06L201.79-20.06L201.79-20.06Q202.88-23.68 205.06-26.75ZM213.38-13.06L213.38-13.06L213.38-13.06Q213.38-8.70 215.62-8.70L215.62-8.70L215.62-8.70Q217.15-8.70 218.62-10.37L218.62-10.37L218.62-10.37Q219.78-11.71 220.22-13.70L220.22-13.70L223.49-30.14L223.49-30.14Q223.17-30.21 222.85-30.34L222.85-30.34L222.85-30.34Q222.21-30.59 221.38-30.59L221.38-30.59L221.38-30.59Q217.47-30.59 215.17-24.19L215.17-24.19L215.17-24.19Q213.38-19.20 213.38-13.06ZM236.93-3.78L236.93-3.78L236.93-3.78Q236.93-6.21 238.82-7.55L238.82-7.55L238.82-7.55Q240.70-8.90 243.39-8.90L243.39-8.90L243.39-8.90Q246.08-8.90 247.71-7.55L247.71-7.55L247.71-7.55Q249.34-6.21 249.34-3.78L249.34-3.78L249.34-3.78Q249.34-1.34 247.52-0.03L247.52-0.03L247.52-0.03Q245.70 1.28 243.01 1.28L243.01 1.28L243.01 1.28Q240.32 1.28 238.62-0.03L238.62-0.03L238.62-0.03Q236.93-1.34 236.93-3.78ZM253.38-3.78L253.38-3.78L253.38-3.78Q253.38-6.21 255.26-7.55L255.26-7.55L255.26-7.55Q257.15-8.90 259.84-8.90L259.84-8.90L259.84-8.90Q262.53-8.90 264.16-7.55L264.16-7.55L264.16-7.55Q265.79-6.21 265.79-3.78L265.79-3.78L265.79-3.78Q265.79-1.34 263.97-0.03L263.97-0.03L263.97-0.03Q262.14 1.28 259.46 1.28L259.46 1.28L259.46 1.28Q256.77 1.28 255.07-0.03L255.07-0.03L255.07-0.03Q253.38-1.34 253.38-3.78ZM269.82-3.78L269.82-3.78L269.82-3.78Q269.82-6.21 271.71-7.55L271.71-7.55L271.71-7.55Q273.60-8.90 276.29-8.90L276.29-8.90L276.29-8.90Q278.98-8.90 280.61-7.55L280.61-7.55L280.61-7.55Q282.24-6.21 282.24-3.78L282.24-3.78L282.24-3.78Q282.24-1.34 280.42-0.03L280.42-0.03L280.42-0.03Q278.59 1.28 275.90 1.28L275.90 1.28L275.90 1.28Q273.22 1.28 271.52-0.03L271.52-0.03L271.52-0.03Q269.82-1.34 269.82-3.78Z" fill="#444"></path></g></g><style>text {
  font-size: 64px;
  font-family: Arial Black;
  dominant-baseline: central;
  text-anchor: middle;
}</style></svg>