<svg width="1011.52490234375px" height="122.021240234375px" xmlns="http://www.w3.org/2000/svg" viewBox="-255.762451171875 13.9893798828125 1011.52490234375 122.021240234375" style="background:silver" preserveAspectRatio="xMidYMid"><defs><filter id="editing-crystal" x="-100%" y="-100%" width="300%" height="300%"><feMorphology operator="dilate" radius="2" in="SourceGraphic" result="border"></feMorphology><feFlood flood-color="#fff" result="black"></feFlood><feMorphology operator="dilate" radius="2" in="SourceGraphic" result="erode"></feMorphology><feGaussianBlur in="erode" stdDeviation="4" result="blur"></feGaussianBlur><feOffset in="blur" dx="2" dy="2" result="offset"></feOffset><feComposite operator="atop" in="offset" in2="black" result="merge"></feComposite><feComposite operator="in" in="merge" in2="SourceGraphic" result="inner-shadow"></feComposite><feGaussianBlur in="SourceGraphic" stdDeviation="2.5" result="shadow1"></feGaussianBlur><feOffset in="shadow1" dx="0" dy="5" result="shadow"></feOffset><feSpecularLighting in="SourceGraphic" result="specular" surfaceScale="1.5" specularConstant="100" specularExponent="10" lighting-color="#fff"><fePointLight x="250" y="-300" z="-400"></fePointLight></feSpecularLighting><feGaussianBlur in="specular" stdDeviation="1" result="specular2"></feGaussianBlur><feComposite operator="in" in="specular2" in2="SourceAlpha" result="specular3"></feComposite><feMerge result="merge"><feMergeNode in="border"></feMergeNode><feMergeNode in="inner-shadow"></feMergeNode><feMergeNode in="specular3"></feMergeNode></feMerge><feComponentTransfer in="merge" result="final"><feFuncA type="linear" slope="0.9" intercept="0"></feFuncA></feComponentTransfer><feMerge><feMergeNode in="shadow"></feMergeNode><feMergeNode in="final"></feMergeNode></feMerge></filter></defs><g filter="url(#editing-crystal)"><g transform="translate(-113.9349927008152, 98.7578125)"><path d="M30.21-33.92L30.21-33.92L30.21-33.92Q25.02-33.92 21.25-35.65L21.25-35.65L19.20-25.28L31.55-25.28L31.55-25.28Q31.55-21.89 29.86-19.74L29.86-19.74L29.86-19.74Q28.16-17.60 25.09-17.60L25.09-17.60L25.09-17.60Q21.76-17.60 18.69-18.82L18.69-18.82L18.69-18.82Q18.05-19.07 17.98-19.14L17.98-19.14L14.34 0L0.38 0L8.51-42.24L37.06-42.24L37.06-42.24Q37.06-38.34 35.23-36.13L35.23-36.13L35.23-36.13Q33.41-33.92 30.21-33.92ZM50.82-3.52L50.82-3.52L50.82-3.52Q48.83 1.28 42.50 1.28L42.50 1.28L42.50 1.28Q39.23 1.28 37.18-0.96L37.18-0.96L37.18-0.96Q35.46-2.94 35.46-4.93L35.46-4.93L35.46-4.93Q35.46-10.11 37.82-20.22L37.82-20.22L40.19-32.64L53.18-33.92L49.28-13.70L49.28-13.70Q48.19-8.96 48.19-7.30L48.19-7.30L48.19-7.30Q48.19-3.65 50.82-3.52ZM41.34-41.54L41.34-41.54L41.34-41.54Q41.34-44.03 43.42-45.38L43.42-45.38L43.42-45.38Q45.50-46.72 48.51-46.72L48.51-46.72L48.51-46.72Q51.52-46.72 53.34-45.38L53.34-45.38L53.34-45.38Q55.17-44.03 55.17-41.54L55.17-41.54L55.17-41.54Q55.17-39.04 53.15-37.76L53.15-37.76L53.15-37.76Q51.14-36.48 48.13-36.48L48.13-36.48L48.13-36.48Q45.12-36.48 43.23-37.76L43.23-37.76L43.23-37.76Q41.34-39.04 41.34-41.54ZM83.33 1.28L83.33 1.28L83.33 1.28Q75.58 1.28 75.58-4.74L75.58-4.74L75.58-4.74Q75.65-6.40 76.16-9.22L76.16-9.22L77.31-15.10L77.31-15.10Q79.04-23.42 79.04-25.28L79.04-25.28L79.04-25.28Q79.04-28.99 76.86-28.99L76.86-28.99L76.86-28.99Q73.22-28.99 71.30-19.46L71.30-19.46L67.52 0L54.66 1.28L61.31-32.70L71.81-33.92L70.78-27.65L70.78-27.65Q73.79-33.92 83.01-33.92L83.01-33.92L83.01-33.92Q87.49-33.92 89.38-32.03L89.38-32.03L89.38-32.03Q91.26-30.14 91.26-25.92L91.26-25.92L91.26-25.92Q91.26-21.95 89.22-12.67L89.22-12.67L89.22-12.67Q88.26-8.51 88.26-6.94L88.26-6.94L88.26-6.94Q88.26-5.38 89.12-4.48L89.12-4.48L89.12-4.48Q89.98-3.58 91.26-3.46L91.26-3.46L91.26-3.46Q90.62-1.28 88.42 0L88.42 0L88.42 0Q86.21 1.28 83.33 1.28ZM116.54-33.92L116.54-33.92L116.54-33.92Q118.85-33.92 120.64-33.41L120.64-33.41L120.64-33.41Q120.70-33.66 120.83-34.37L120.83-34.37L121.15-36.35L121.15-36.35Q121.41-37.63 121.79-39.74L121.79-39.74L122.82-44.80L135.55-46.08L128.45-8.96L128.45-8.96Q128.38-8.58 128.38-7.94L128.38-7.94L128.38-6.91L128.38-6.91Q128.38-5.50 129.09-4.45L129.09-4.45L129.09-4.45Q129.79-3.39 130.94-3.39L130.94-3.39L130.94-3.39Q129.66-0.38 125.76 0.90L125.76 0.90L125.76 0.90Q124.42 1.28 122.53 1.28L122.53 1.28L122.53 1.28Q120.64 1.28 118.91 0.29L118.91 0.29L118.91 0.29Q117.18-0.70 116.67-2.37L116.67-2.37L116.67-2.37Q115.65-0.70 113.60 0.29L113.60 0.29L113.60 0.29Q111.55 1.28 108.58 1.28L108.58 1.28L108.58 1.28Q105.60 1.28 103.14 0.51L103.14 0.51L103.14 0.51Q100.67-0.26 99.14-1.92L99.14-1.92L99.14-1.92Q96.32-5.18 96.32-12.61L96.32-12.61L96.32-12.61Q96.32-22.21 101.95-28.03L101.95-28.03L101.95-28.03Q107.58-33.92 116.54-33.92ZM116.10-30.08L116.10-30.08L116.10-30.08Q113.73-30.08 112.45-27.52L112.45-27.52L112.45-27.52Q111.17-24.96 109.86-18.62L109.86-18.62L109.86-18.62Q108.54-12.29 108.54-6.59L108.54-6.59L108.54-6.59Q108.54-2.69 110.85-2.69L110.85-2.69L110.85-2.69Q112.90-2.69 114.34-4.74L114.34-4.74L114.34-4.74Q115.78-6.78 116.35-10.18L116.35-10.18L119.81-28.93L119.81-28.93Q118.46-30.08 116.10-30.08ZM163.52 1.28L163.52 1.28L163.52 1.28Q149.44 1.28 149.44-11.97L149.44-11.97L149.44-11.97Q149.44-21.38 154.62-27.46L154.62-27.46L154.62-27.46Q160.13-33.92 169.66-33.92L169.66-33.92L169.66-33.92Q176.58-33.92 180.10-30.72L180.10-30.72L180.10-30.72Q183.62-27.52 183.62-20.80L183.62-20.80L183.62-20.80Q183.62-10.56 178.11-4.61L178.11-4.61L178.11-4.61Q172.74 1.28 163.52 1.28ZM165.18-26.56L165.18-26.56L165.18-26.56Q164.42-24.83 163.81-22.24L163.81-22.24L163.81-22.24Q163.20-19.65 162.43-15.55L162.43-15.55L162.43-15.55Q161.66-11.46 161.66-6.40L161.66-6.40L161.66-6.40Q161.66-4.74 162.21-3.65L162.21-3.65L162.21-3.65Q162.75-2.56 164.22-2.56L164.22-2.56L164.22-2.56Q165.70-2.56 166.62-3.26L166.62-3.26L166.62-3.26Q167.55-3.97 168.26-5.63L168.26-5.63L168.26-5.63Q169.54-8.58 170.56-14.05L170.56-14.05L170.56-14.05Q171.58-19.52 171.68-21.89L171.68-21.89L171.68-21.89Q171.78-24.26 171.78-26.02L171.78-26.02L171.78-26.02Q171.78-27.78 171.26-28.93L171.26-28.93L171.26-28.93Q170.75-30.08 169.31-30.08L169.31-30.08L169.31-30.08Q167.87-30.08 166.91-29.18L166.91-29.18L166.91-29.18Q165.95-28.29 165.18-26.56ZM207.94-2.69L207.94-2.69L207.94-2.69Q204.86 1.28 197.25 1.28L197.25 1.28L197.25 1.28Q193.28 1.28 190.40-1.12L190.40-1.12L190.40-1.12Q187.52-3.52 187.52-6.98L187.52-6.98L187.52-6.98Q187.52-8.90 187.71-9.86L187.71-9.86L192.00-32.64L204.99-33.92L200.32-9.22L200.32-9.22Q200.06-7.81 200.06-6.98L200.06-6.98L200.06-6.98Q200.06-3.26 202.30-3.26L202.30-3.26L202.30-3.26Q204.80-3.26 206.59-6.66L206.59-6.66L206.59-6.66Q207.17-7.74 207.42-9.15L207.42-9.15L211.97-32.64L224.58-33.92L219.84-8.96L219.84-8.96Q219.65-8 219.65-6.98L219.65-6.98L219.65-6.98Q219.65-5.95 220.22-4.83L220.22-4.83L220.22-4.83Q220.80-3.71 222.66-3.46L222.66-3.46L222.66-3.46Q222.27-1.92 220.93-0.90L220.93-0.90L220.93-0.90Q218.11 1.28 215.07 1.28L215.07 1.28L215.07 1.28Q212.03 1.28 210.24 0.19L210.24 0.19L210.24 0.19Q208.45-0.90 207.94-2.69ZM229.06-6.40L229.06-6.40L229.06-6.40Q229.06-8.13 229.95-12.48L229.95-12.48L233.34-29.76L229.57-29.76L229.82-31.68L229.82-31.68Q237.50-33.98 244.93-39.62L244.93-39.62L248.00-39.62L246.46-32.64L251.46-32.64L250.88-29.76L245.95-29.76L242.69-12.48L242.69-12.48Q241.86-8.51 241.86-7.17L241.86-7.17L241.86-7.17Q241.86-4.10 244.54-3.46L244.54-3.46L244.54-3.46Q243.90-1.28 241.60 0L241.60 0L241.60 0Q239.30 1.28 236.03 1.28L236.03 1.28L236.03 1.28Q232.77 1.28 230.91-0.77L230.91-0.77L230.91-0.77Q229.06-2.82 229.06-6.40ZM265.34-6.40L265.34-6.40L265.34-6.40Q265.34-8.13 266.24-12.48L266.24-12.48L269.63-29.76L265.86-29.76L266.11-31.68L266.11-31.68Q273.79-33.98 281.22-39.62L281.22-39.62L284.29-39.62L282.75-32.64L287.74-32.64L287.17-29.76L282.24-29.76L278.98-12.48L278.98-12.48Q278.14-8.51 278.14-7.17L278.14-7.17L278.14-7.17Q278.14-4.10 280.83-3.46L280.83-3.46L280.83-3.46Q280.19-1.28 277.89 0L277.89 0L277.89 0Q275.58 1.28 272.32 1.28L272.32 1.28L272.32 1.28Q269.06 1.28 267.20-0.77L267.20-0.77L267.20-0.77Q265.34-2.82 265.34-6.40ZM319.62-7.10L319.62-7.10L319.62-7.10Q319.62-4.29 322.50-3.46L322.50-3.46L322.50-3.46Q321.79-1.09 319.04 0.19L319.04 0.19L319.04 0.19Q316.74 1.28 314.21 1.28L314.21 1.28L314.21 1.28Q311.68 1.28 310.37 0.61L310.37 0.61L310.37 0.61Q309.06-0.06 308.35-1.15L308.35-1.15L308.35-1.15Q307.20-2.82 307.20-5.95L307.20-5.95L307.20-5.95Q307.20-7.81 308.22-12.93L308.22-12.93L309.12-17.79L309.12-17.79Q310.21-23.36 310.21-25.41L310.21-25.41L310.21-25.41Q310.21-28.99 308.22-28.99L308.22-28.99L308.22-28.99Q305.73-28.99 304.13-25.34L304.13-25.34L304.13-25.34Q303.49-23.94 303.04-21.82L303.04-21.82L298.69 0L285.82 1.28L294.85-44.80L307.71-46.08L307.20-43.52L307.20-43.52Q305.41-33.66 303.87-30.34L303.87-30.34L303.87-30.34Q307.46-33.92 314.05-33.92L314.05-33.92L314.05-33.92Q321.02-33.92 322.30-29.31L322.30-29.31L322.30-29.31Q322.75-27.84 322.75-26.56L322.75-26.56L322.75-26.56Q322.75-25.28 322.66-24.29L322.66-24.29L322.66-24.29Q322.56-23.30 322.24-21.50L322.24-21.50L321.41-16.90L319.94-9.66L319.94-9.66Q319.62-8.19 319.62-7.10ZM353.60-10.82L353.60-10.82L353.60-10.82Q355.20-9.73 355.20-7.33L355.20-7.33L355.20-7.33Q355.20-4.93 353.98-3.39L353.98-3.39L353.98-3.39Q352.77-1.86 350.78-0.83L350.78-0.83L350.78-0.83Q346.69 1.28 342.27 1.28L342.27 1.28L342.27 1.28Q337.86 1.28 335.26 0.32L335.26 0.32L335.26 0.32Q332.67-0.64 330.94-2.43L330.94-2.43L330.94-2.43Q327.55-5.82 327.55-12.03L327.55-12.03L327.55-12.03Q327.55-21.70 332.80-27.58L332.80-27.58L332.80-27.58Q338.43-33.92 348.22-33.92L348.22-33.92L348.22-33.92Q354.30-33.92 357.31-31.36L357.31-31.36L357.31-31.36Q359.55-29.44 359.55-26.30L359.55-26.30L359.55-26.30Q359.55-15.04 340.10-15.04L340.10-15.04L340.10-15.04Q339.84-13.38 339.84-11.97L339.84-11.97L339.84-11.97Q339.84-9.02 341.15-7.90L341.15-7.90L341.15-7.90Q342.46-6.78 344.90-6.78L344.90-6.78L344.90-6.78Q347.33-6.78 349.92-7.90L349.92-7.90L349.92-7.90Q352.51-9.02 353.60-10.82ZM340.54-17.79L340.54-17.79L340.54-17.79Q345.09-17.79 347.71-20.61L347.71-20.61L347.71-20.61Q350.34-23.30 350.34-27.58L350.34-27.58L350.34-27.58Q350.34-29.06 349.79-29.86L349.79-29.86L349.79-29.86Q349.25-30.66 348.16-30.66L348.16-30.66L348.16-30.66Q347.07-30.66 346.14-30.24L346.14-30.24L346.14-30.24Q345.22-29.82 344.26-28.42L344.26-28.42L344.26-28.42Q341.89-25.22 340.54-17.79ZM422.66-10.69L422.66-10.69Q418.43-4.86 414.37-1.79L414.37-1.79L414.37-1.79Q410.30 1.28 406.11 1.28L406.11 1.28L406.11 1.28Q401.92 1.28 400.45 0.45L400.45 0.45L400.45-13.63L400.45-13.63Q396.80-3.90 390.27-0.13L390.27-0.13L390.27-0.13Q387.90 1.28 385.66 1.28L385.66 1.28L385.66 1.28Q381.38 1.28 379.52 0.45L379.52 0.45L379.52 0.45Q379.07-14.21 378.69-18.27L378.69-18.27L378.69-18.27Q378.30-22.34 377.98-24.83L377.98-24.83L377.98-24.83Q377.34-29.82 375.17-31.87L375.17-31.87L375.17-31.87Q377.92-33.92 381.76-33.92L381.76-33.92L381.76-33.92Q389.18-33.92 390.21-24.70L390.21-24.70L390.21-24.70Q390.46-22.53 390.46-20.22L390.46-20.22L390.46-20.22Q390.46-16.77 389.70-4.74L389.70-4.74L389.70-4.74Q391.23-5.44 392.86-7.97L392.86-7.97L392.86-7.97Q394.50-10.50 395.84-13.95L395.84-13.95L395.84-13.95Q398.85-21.95 398.85-28.86L398.85-28.86L398.85-28.86Q398.85-29.95 398.56-31.10L398.56-31.10L398.56-31.10Q398.27-32.26 397.95-32.58L397.95-32.58L397.95-32.58Q400.19-33.92 403.62-33.92L403.62-33.92L403.62-33.92Q407.04-33.92 408.67-31.58L408.67-31.58L408.67-31.58Q410.30-29.25 410.75-24.96L410.75-24.96L410.75-24.96Q411.26-19.52 411.26-16.26L411.26-16.26L411.26-16.26Q411.26-11.71 410.82-4.99L410.82-4.99L410.82-4.99Q414.02-7.30 416.64-14.85L416.64-14.85L416.64-14.85Q419.26-22.40 419.26-27.78L419.26-27.78L419.26-27.78Q419.26-30.14 418.88-31.55L418.88-31.55L418.88-31.55Q420.99-33.92 424.64-33.92L424.64-33.92L424.64-33.92Q426.88-33.92 428.51-32.70L428.51-32.70L428.51-32.70Q430.14-31.49 430.14-29.22L430.14-29.22L430.14-29.22Q430.14-26.94 429.47-24.51L429.47-24.51L429.47-24.51Q428.80-22.08 427.71-19.58L427.71-19.58L427.71-19.58Q425.60-14.59 422.66-10.69L422.66-10.69ZM457.79-10.82L457.79-10.82L457.79-10.82Q459.39-9.73 459.39-7.33L459.39-7.33L459.39-7.33Q459.39-4.93 458.18-3.39L458.18-3.39L458.18-3.39Q456.96-1.86 454.98-0.83L454.98-0.83L454.98-0.83Q450.88 1.28 446.46 1.28L446.46 1.28L446.46 1.28Q442.05 1.28 439.46 0.32L439.46 0.32L439.46 0.32Q436.86-0.64 435.14-2.43L435.14-2.43L435.14-2.43Q431.74-5.82 431.74-12.03L431.74-12.03L431.74-12.03Q431.74-21.70 436.99-27.58L436.99-27.58L436.99-27.58Q442.62-33.92 452.42-33.92L452.42-33.92L452.42-33.92Q458.50-33.92 461.50-31.36L461.50-31.36L461.50-31.36Q463.74-29.44 463.74-26.30L463.74-26.30L463.74-26.30Q463.74-15.04 444.29-15.04L444.29-15.04L444.29-15.04Q444.03-13.38 444.03-11.97L444.03-11.97L444.03-11.97Q444.03-9.02 445.34-7.90L445.34-7.90L445.34-7.90Q446.66-6.78 449.09-6.78L449.09-6.78L449.09-6.78Q451.52-6.78 454.11-7.90L454.11-7.90L454.11-7.90Q456.70-9.02 457.79-10.82ZM444.74-17.79L444.74-17.79L444.74-17.79Q449.28-17.79 451.90-20.61L451.90-20.61L451.90-20.61Q454.53-23.30 454.53-27.58L454.53-27.58L454.53-27.58Q454.53-29.06 453.98-29.86L453.98-29.86L453.98-29.86Q453.44-30.66 452.35-30.66L452.35-30.66L452.35-30.66Q451.26-30.66 450.34-30.24L450.34-30.24L450.34-30.24Q449.41-29.82 448.45-28.42L448.45-28.42L448.45-28.42Q446.08-25.22 444.74-17.79ZM468.70-1.92L468.70-1.92L468.70-1.92Q467.20-3.58 466.53-6.21L466.53-6.21L466.53-6.21Q465.86-8.83 465.86-13.12L465.86-13.12L465.86-13.12Q465.86-17.41 467.33-21.31L467.33-21.31L467.33-21.31Q468.80-25.22 471.49-28.03L471.49-28.03L471.49-28.03Q476.99-33.92 486.08-33.92L486.08-33.92L486.08-33.92Q489.34-33.92 491.71-32.83L491.71-32.83L502.66-33.92L497.92-8.96L497.92-8.96Q497.73-8.19 497.73-6.78L497.73-6.78L497.73-6.78Q497.73-5.38 498.59-4.48L498.59-4.48L498.59-4.48Q499.46-3.58 500.74-3.46L500.74-3.46L500.74-3.46Q500.10-1.28 497.76 0L497.76 0L497.76 0Q495.42 1.28 492.80 1.28L492.80 1.28L492.80 1.28Q490.18 1.28 488.42 0.29L488.42 0.29L488.42 0.29Q486.66-0.70 486.14-2.37L486.14-2.37L486.14-2.37Q485.12-0.77 482.94 0.26L482.94 0.26L482.94 0.26Q480.77 1.28 477.86 1.28L477.86 1.28L477.86 1.28Q474.94 1.28 472.58 0.51L472.58 0.51L472.58 0.51Q470.21-0.26 468.70-1.92ZM482.21-27.90L482.21-27.90L482.21-27.90Q481.47-26.75 480.83-24.80L480.83-24.80L480.83-24.80Q480.19-22.85 479.14-17.63L479.14-17.63L479.14-17.63Q478.08-12.42 478.08-8.70L478.08-8.70L478.08-8.70Q478.08-4.99 478.66-3.90L478.66-3.90L478.66-3.90Q479.23-2.82 480.26-2.82L480.26-2.82L480.26-2.82Q482.30-2.82 483.81-4.77L483.81-4.77L483.81-4.77Q485.31-6.72 485.89-10.18L485.89-10.18L489.28-28.93L489.28-28.93Q487.94-30.08 486.37-30.08L486.37-30.08L486.37-30.08Q484.80-30.08 483.87-29.57L483.87-29.57L483.87-29.57Q482.94-29.06 482.21-27.90ZM507.14-6.40L507.14-6.40L507.14-6.40Q507.14-8.13 508.03-12.48L508.03-12.48L511.42-29.76L507.65-29.76L507.90-31.68L507.90-31.68Q515.58-33.98 523.01-39.62L523.01-39.62L526.08-39.62L524.54-32.64L529.54-32.64L528.96-29.76L524.03-29.76L520.77-12.48L520.77-12.48Q519.94-8.51 519.94-7.17L519.94-7.17L519.94-7.17Q519.94-4.10 522.62-3.46L522.62-3.46L522.62-3.46Q521.98-1.28 519.68 0L519.68 0L519.68 0Q517.38 1.28 514.11 1.28L514.11 1.28L514.11 1.28Q510.85 1.28 508.99-0.77L508.99-0.77L508.99-0.77Q507.14-2.82 507.14-6.40ZM561.41-7.10L561.41-7.10L561.41-7.10Q561.41-4.29 564.29-3.46L564.29-3.46L564.29-3.46Q563.58-1.09 560.83 0.19L560.83 0.19L560.83 0.19Q558.53 1.28 556 1.28L556 1.28L556 1.28Q553.47 1.28 552.16 0.61L552.16 0.61L552.16 0.61Q550.85-0.06 550.14-1.15L550.14-1.15L550.14-1.15Q548.99-2.82 548.99-5.95L548.99-5.95L548.99-5.95Q548.99-7.81 550.02-12.93L550.02-12.93L550.91-17.79L550.91-17.79Q552-23.36 552-25.41L552-25.41L552-25.41Q552-28.99 550.02-28.99L550.02-28.99L550.02-28.99Q547.52-28.99 545.92-25.34L545.92-25.34L545.92-25.34Q545.28-23.94 544.83-21.82L544.83-21.82L540.48 0L527.62 1.28L536.64-44.80L549.50-46.08L548.99-43.52L548.99-43.52Q547.20-33.66 545.66-30.34L545.66-30.34L545.66-30.34Q549.25-33.92 555.84-33.92L555.84-33.92L555.84-33.92Q562.82-33.92 564.10-29.31L564.10-29.31L564.10-29.31Q564.54-27.84 564.54-26.56L564.54-26.56L564.54-26.56Q564.54-25.28 564.45-24.29L564.45-24.29L564.45-24.29Q564.35-23.30 564.03-21.50L564.03-21.50L563.20-16.90L561.73-9.66L561.73-9.66Q561.41-8.19 561.41-7.10ZM595.39-10.82L595.39-10.82L595.39-10.82Q596.99-9.73 596.99-7.33L596.99-7.33L596.99-7.33Q596.99-4.93 595.78-3.39L595.78-3.39L595.78-3.39Q594.56-1.86 592.58-0.83L592.58-0.83L592.58-0.83Q588.48 1.28 584.06 1.28L584.06 1.28L584.06 1.28Q579.65 1.28 577.06 0.32L577.06 0.32L577.06 0.32Q574.46-0.64 572.74-2.43L572.74-2.43L572.74-2.43Q569.34-5.82 569.34-12.03L569.34-12.03L569.34-12.03Q569.34-21.70 574.59-27.58L574.59-27.58L574.59-27.58Q580.22-33.92 590.02-33.92L590.02-33.92L590.02-33.92Q596.10-33.92 599.10-31.36L599.10-31.36L599.10-31.36Q601.34-29.44 601.34-26.30L601.34-26.30L601.34-26.30Q601.34-15.04 581.89-15.04L581.89-15.04L581.89-15.04Q581.63-13.38 581.63-11.97L581.63-11.97L581.63-11.97Q581.63-9.02 582.94-7.90L582.94-7.90L582.94-7.90Q584.26-6.78 586.69-6.78L586.69-6.78L586.69-6.78Q589.12-6.78 591.71-7.90L591.71-7.90L591.71-7.90Q594.30-9.02 595.39-10.82ZM582.34-17.79L582.34-17.79L582.34-17.79Q586.88-17.79 589.50-20.61L589.50-20.61L589.50-20.61Q592.13-23.30 592.13-27.58L592.13-27.58L592.13-27.58Q592.13-29.06 591.58-29.86L591.58-29.86L591.58-29.86Q591.04-30.66 589.95-30.66L589.95-30.66L589.95-30.66Q588.86-30.66 587.94-30.24L587.94-30.24L587.94-30.24Q587.01-29.82 586.05-28.42L586.05-28.42L586.05-28.42Q583.68-25.22 582.34-17.79ZM623.55-17.98L623.55-17.98L623.55-17.98Q625.86-22.08 625.86-26.24L625.86-26.24L625.86-26.24Q625.86-28.99 623.87-28.99L623.87-28.99L623.87-28.99Q622.34-28.99 620.74-26.37L620.74-26.37L620.74-26.37Q619.07-23.74 618.56-20.35L618.56-20.35L615.23 0L601.98 1.28L608.51-32.64L619.07-33.92L617.92-27.46L617.92-27.46Q621.06-33.92 628.10-33.92L628.10-33.92L628.10-33.92Q631.81-33.92 633.82-32L633.82-32L633.82-32Q635.84-30.08 635.84-26.14L635.84-26.14L635.84-26.14Q635.84-22.21 633.25-19.71L633.25-19.71L633.25-19.71Q630.66-17.22 626.24-17.22L626.24-17.22L626.24-17.22Q624.32-17.22 623.55-17.98ZM665.41-3.52L665.41-3.52L665.41-3.52Q663.42 1.28 657.09 1.28L657.09 1.28L657.09 1.28Q653.82 1.28 651.78-0.96L651.78-0.96L651.78-0.96Q650.05-2.94 650.05-4.93L650.05-4.93L650.05-4.93Q650.05-10.11 652.42-20.22L652.42-20.22L654.78-32.64L667.78-33.92L663.87-13.70L663.87-13.70Q662.78-8.96 662.78-7.30L662.78-7.30L662.78-7.30Q662.78-3.65 665.41-3.52ZM655.94-41.54L655.94-41.54L655.94-41.54Q655.94-44.03 658.02-45.38L658.02-45.38L658.02-45.38Q660.10-46.72 663.10-46.72L663.10-46.72L663.10-46.72Q666.11-46.72 667.94-45.38L667.94-45.38L667.94-45.38Q669.76-44.03 669.76-41.54L669.76-41.54L669.76-41.54Q669.76-39.04 667.74-37.76L667.74-37.76L667.74-37.76Q665.73-36.48 662.72-36.48L662.72-36.48L662.72-36.48Q659.71-36.48 657.82-37.76L657.82-37.76L657.82-37.76Q655.94-39.04 655.94-41.54ZM697.92 1.28L697.92 1.28L697.92 1.28Q690.18 1.28 690.18-4.74L690.18-4.74L690.18-4.74Q690.24-6.40 690.75-9.22L690.75-9.22L691.90-15.10L691.90-15.10Q693.63-23.42 693.63-25.28L693.63-25.28L693.63-25.28Q693.63-28.99 691.46-28.99L691.46-28.99L691.46-28.99Q687.81-28.99 685.89-19.46L685.89-19.46L682.11 0L669.25 1.28L675.90-32.70L686.40-33.92L685.38-27.65L685.38-27.65Q688.38-33.92 697.60-33.92L697.60-33.92L697.60-33.92Q702.08-33.92 703.97-32.03L703.97-32.03L703.97-32.03Q705.86-30.14 705.86-25.92L705.86-25.92L705.86-25.92Q705.86-21.95 703.81-12.67L703.81-12.67L703.81-12.67Q702.85-8.51 702.85-6.94L702.85-6.94L702.85-6.94Q702.85-5.38 703.71-4.48L703.71-4.48L703.71-4.48Q704.58-3.58 705.86-3.46L705.86-3.46L705.86-3.46Q705.22-1.28 703.01 0L703.01 0L703.01 0Q700.80 1.28 697.92 1.28ZM709.82-3.78L709.82-3.78L709.82-3.78Q709.82-6.21 711.71-7.55L711.71-7.55L711.71-7.55Q713.60-8.90 716.29-8.90L716.29-8.90L716.29-8.90Q718.98-8.90 720.61-7.55L720.61-7.55L720.61-7.55Q722.24-6.21 722.24-3.78L722.24-3.78L722.24-3.78Q722.24-1.34 720.42-0.03L720.42-0.03L720.42-0.03Q718.59 1.28 715.90 1.28L715.90 1.28L715.90 1.28Q713.22 1.28 711.52-0.03L711.52-0.03L711.52-0.03Q709.82-1.34 709.82-3.78ZM715.07-28.80L715.07-28.80L715.07-28.80Q715.07-31.23 716.96-32.58L716.96-32.58L716.96-32.58Q718.85-33.92 721.54-33.92L721.54-33.92L721.54-33.92Q724.22-33.92 725.86-32.58L725.86-32.58L725.86-32.58Q727.49-31.23 727.49-28.80L727.49-28.80L727.49-28.80Q727.49-26.37 725.66-25.06L725.66-25.06L725.66-25.06Q723.84-23.74 721.15-23.74L721.15-23.74L721.15-23.74Q718.46-23.74 716.77-25.06L716.77-25.06L716.77-25.06Q715.07-26.37 715.07-28.80Z" fill="#000000" stroke="#88e0eb" stroke-width="1.5"></path></g></g><style>text {
  font-size: 64px;
  font-family: Arial Black;
  dominant-baseline: central;
  text-anchor: middle;
}</style></svg>